<?xml version="1.0" encoding="UTF-8" standalone="no"?>
<!DOCTYPE svg PUBLIC "-//W3C//DTD SVG 1.1//EN"
 "http://www.w3.org/Graphics/SVG/1.1/DTD/svg11.dtd">
<!-- Generated by graphviz version 14.1.3 (0)
 -->
<!-- Title: ObjectState Pages: 1 -->
<svg width="844pt" height="521pt"
 viewBox="0.00 0.00 844.00 521.00" xmlns="http://www.w3.org/2000/svg" xmlns:xlink="http://www.w3.org/1999/xlink">
<g id="graph0" class="graph" transform="scale(1 1) rotate(0) translate(4 517)">
<title>ObjectState</title>
<polygon fill="white" stroke="none" points="-4,4 -4,-517 839.75,-517 839.75,4 -4,4"/>
<!-- __start__ -->
<g id="node1" class="node">
<title>__start__</title>
<ellipse fill="black" stroke="black" cx="63.19" cy="-352.38" rx="7.2" ry="7.2"/>
</g>
<!-- New -->
<g id="node2" class="node">
<title>New</title>
<ellipse fill="#aed6f1" stroke="black" cx="63.19" cy="-256.38" rx="63.19" ry="24.32"/>
<text xml:space="preserve" text-anchor="middle" x="63.19" y="-259.68" font-family="Helvetica,sans-Serif" font-size="11.00">New</text>
<text xml:space="preserve" text-anchor="middle" x="63.19" y="-246.48" font-family="Helvetica,sans-Serif" font-size="11.00">needs INSERT</text>
</g>
<!-- __start__&#45;&gt;New -->
<g id="edge1" class="edge">
<title>__start__&#45;&gt;New</title>
<path fill="none" stroke="black" d="M63.19,-344.81C63.19,-333.58 63.19,-311.73 63.19,-292.57"/>
<polygon fill="black" stroke="black" points="66.69,-292.61 63.19,-282.61 59.69,-292.61 66.69,-292.61"/>
<text xml:space="preserve" text-anchor="middle" x="54.79" y="-310.24" font-family="Helvetica,sans-Serif" font-size="9.00">new TrackedObject()</text>
</g>
<!-- New&#45;&gt;New -->
<g id="edge2" class="edge">
<title>New&#45;&gt;New</title>
<path fill="none" stroke="#999999" stroke-dasharray="5,2" d="M43.05,-279.88C41.41,-290.02 48.12,-298.7 63.19,-298.7 72.14,-298.7 78.14,-295.64 81.2,-291.03"/>
<polygon fill="#999999" stroke="#999999" points="84.6,-291.84 83.04,-281.37 77.73,-290.53 84.6,-291.84"/>
<text xml:space="preserve" text-anchor="middle" x="63.19" y="-301.4" font-family="Helvetica,sans-Serif" font-size="9.00" fill="#999999">prop change</text>
</g>
<!-- Unchanged -->
<g id="node3" class="node">
<title>Unchanged</title>
<ellipse fill="#a9dfbf" stroke="black" cx="333.97" cy="-256.38" rx="51.1" ry="24.32"/>
<text xml:space="preserve" text-anchor="middle" x="333.97" y="-259.68" font-family="Helvetica,sans-Serif" font-size="11.00">Unchanged</text>
<text xml:space="preserve" text-anchor="middle" x="333.97" y="-246.48" font-family="Helvetica,sans-Serif" font-size="11.00">no action</text>
</g>
<!-- New&#45;&gt;Unchanged -->
<g id="edge6" class="edge">
<title>New&#45;&gt;Unchanged</title>
<path fill="none" stroke="#555555" d="M121.46,-266C129.14,-266.98 136.94,-267.82 144.38,-268.38 187.52,-271.59 236.25,-268.3 273.37,-264.37"/>
<polygon fill="#555555" stroke="#555555" points="273.44,-267.88 283,-263.3 272.67,-260.93 273.44,-267.88"/>
<text xml:space="preserve" text-anchor="middle" x="171.88" y="-283.17" font-family="Helvetica,sans-Serif" font-size="9.00" fill="#555555">remove()</text>
<text xml:space="preserve" text-anchor="middle" x="171.88" y="-272.37" font-family="Helvetica,sans-Serif" font-size="9.00" fill="#555555">[never saved]</text>
</g>
<!-- New&#45;&gt;Unchanged -->
<g id="edge12" class="edge">
<title>New&#45;&gt;Unchanged</title>
<path fill="none" stroke="darkgreen" d="M126.79,-255.69C132.73,-255.64 138.67,-255.6 144.38,-255.58 186.81,-255.36 234.61,-255.57 271.47,-255.83"/>
<polygon fill="darkgreen" stroke="darkgreen" points="271,-259.32 281.03,-255.9 271.05,-252.32 271,-259.32"/>
<text xml:space="preserve" text-anchor="middle" x="171.88" y="-258.28" font-family="Helvetica,sans-Serif" font-size="9.00" fill="darkgreen">afterCommit()</text>
</g>
<!-- Unchanged&#45;&gt;New -->
<g id="edge9" class="edge">
<title>Unchanged&#45;&gt;New</title>
<path fill="none" stroke="#555555" d="M298.45,-238.43C260.55,-221.04 197.95,-199.15 144.38,-212.78 130.82,-216.22 117.08,-222.48 104.89,-229.19"/>
<polygon fill="#555555" stroke="#555555" points="103.26,-226.09 96.36,-234.13 106.77,-232.15 103.26,-226.09"/>
<text xml:space="preserve" text-anchor="middle" x="171.88" y="-226.28" font-family="Helvetica,sans-Serif" font-size="9.00" fill="#555555">undo remove</text>
<text xml:space="preserve" text-anchor="middle" x="171.88" y="-215.48" font-family="Helvetica,sans-Serif" font-size="9.00" fill="#555555">[was New]</text>
</g>
<!-- Edited -->
<g id="node4" class="node">
<title>Edited</title>
<ellipse fill="#fad7a0" stroke="black" stroke-dasharray="5,2" cx="333.97" cy="-359.38" rx="116.59" ry="42.85"/>
<text xml:space="preserve" text-anchor="middle" x="333.97" y="-375.78" font-family="Helvetica,sans-Serif" font-size="11.00">Edited *</text>
<text xml:space="preserve" text-anchor="middle" x="333.97" y="-362.58" font-family="Helvetica,sans-Serif" font-size="11.00">needs Close+INSERT</text>
<text xml:space="preserve" text-anchor="middle" x="333.97" y="-336.38" font-family="Helvetica,sans-Serif" font-size="11.00">* derived: Unchanged + isDirty</text>
</g>
<!-- Unchanged&#45;&gt;Edited -->
<g id="edge5" class="edge">
<title>Unchanged&#45;&gt;Edited</title>
<path fill="none" stroke="black" d="M317.3,-279.49C316.48,-287.06 316.55,-296.29 317.09,-305.04"/>
<polygon fill="black" stroke="black" points="313.6,-305.29 317.95,-314.95 320.57,-304.69 313.6,-305.29"/>
<text xml:space="preserve" text-anchor="middle" x="308.77" y="-295.91" font-family="Helvetica,sans-Serif" font-size="9.00">prop change</text>
</g>
<!-- Deleted -->
<g id="node5" class="node">
<title>Deleted</title>
<ellipse fill="#f1948a" stroke="black" cx="730.19" cy="-431.38" rx="87.83" ry="24.32"/>
<text xml:space="preserve" text-anchor="middle" x="730.19" y="-434.68" font-family="Helvetica,sans-Serif" font-size="11.00">Deleted</text>
<text xml:space="preserve" text-anchor="middle" x="730.19" y="-421.48" font-family="Helvetica,sans-Serif" font-size="11.00">needs SOFT DELETE</text>
</g>
<!-- Unchanged&#45;&gt;Deleted -->
<g id="edge7" class="edge">
<title>Unchanged&#45;&gt;Deleted</title>
<path fill="none" stroke="black" d="M381.51,-265.82C405.69,-273.13 433.64,-285.8 450.56,-307.38 478.96,-343.6 434.57,-378.33 468.56,-409.38 480.69,-420.45 562.37,-426.04 631.1,-428.8"/>
<polygon fill="black" stroke="black" points="630.81,-432.29 640.94,-429.18 631.08,-425.29 630.81,-432.29"/>
<text xml:space="preserve" text-anchor="middle" x="537.6" y="-430.05" font-family="Helvetica,sans-Serif" font-size="9.00">remove()</text>
</g>
<!-- InsertReverted -->
<g id="node6" class="node">
<title>InsertReverted</title>
<ellipse fill="#d2b4de" stroke="black" cx="730.19" cy="-273.38" rx="89.13" ry="24.32"/>
<text xml:space="preserve" text-anchor="middle" x="730.19" y="-276.68" font-family="Helvetica,sans-Serif" font-size="11.00">InsertReverted</text>
<text xml:space="preserve" text-anchor="middle" x="730.19" y="-263.48" font-family="Helvetica,sans-Serif" font-size="11.00">needs HARD DELETE</text>
</g>
<!-- Unchanged&#45;&gt;InsertReverted -->
<g id="edge18" class="edge">
<title>Unchanged&#45;&gt;InsertReverted</title>
<path fill="none" stroke="darkorange" d="M380.1,-267.4C405.84,-273.12 438.81,-279.51 468.56,-282.38 529.64,-288.26 545.31,-284.62 606.64,-282.38 615.25,-282.06 624.21,-281.62 633.18,-281.1"/>
<polygon fill="darkorange" stroke="darkorange" points="633.24,-284.6 643.01,-280.5 632.81,-277.62 633.24,-284.6"/>
<text xml:space="preserve" text-anchor="middle" x="537.6" y="-299.07" font-family="Helvetica,sans-Serif" font-size="9.00" fill="darkorange">undo</text>
<text xml:space="preserve" text-anchor="middle" x="537.6" y="-288.27" font-family="Helvetica,sans-Serif" font-size="9.00" fill="darkorange">[saved New or InsertReverted]</text>
</g>
<!-- EditReverted -->
<g id="node7" class="node">
<title>EditReverted</title>
<ellipse fill="#d2b4de" stroke="black" cx="730.19" cy="-160.38" rx="105.56" ry="33.66"/>
<text xml:space="preserve" text-anchor="middle" x="730.19" y="-170.28" font-family="Helvetica,sans-Serif" font-size="11.00">EditReverted</text>
<text xml:space="preserve" text-anchor="middle" x="730.19" y="-157.08" font-family="Helvetica,sans-Serif" font-size="11.00">needs HARD DELETE new</text>
<text xml:space="preserve" text-anchor="middle" x="730.19" y="-143.88" font-family="Helvetica,sans-Serif" font-size="11.00">+ REOPEN old</text>
</g>
<!-- Unchanged&#45;&gt;EditReverted -->
<g id="edge19" class="edge">
<title>Unchanged&#45;&gt;EditReverted</title>
<path fill="none" stroke="darkorange" d="M377.49,-243.33C403.65,-235.49 437.91,-225.57 468.56,-217.78 521.36,-204.35 580.65,-191.14 629.32,-180.79"/>
<polygon fill="darkorange" stroke="darkorange" points="629.95,-184.24 639.01,-178.74 628.5,-177.39 629.95,-184.24"/>
<text xml:space="preserve" text-anchor="middle" x="537.6" y="-231.28" font-family="Helvetica,sans-Serif" font-size="9.00" fill="darkorange">undo</text>
<text xml:space="preserve" text-anchor="middle" x="537.6" y="-220.48" font-family="Helvetica,sans-Serif" font-size="9.00" fill="darkorange">[saved Edited or EditReverted]</text>
</g>
<!-- DeleteReverted -->
<g id="node8" class="node">
<title>DeleteReverted</title>
<ellipse fill="#d2b4de" stroke="black" cx="730.19" cy="-47.38" rx="67.52" ry="24.32"/>
<text xml:space="preserve" text-anchor="middle" x="730.19" y="-50.68" font-family="Helvetica,sans-Serif" font-size="11.00">DeleteReverted</text>
<text xml:space="preserve" text-anchor="middle" x="730.19" y="-37.48" font-family="Helvetica,sans-Serif" font-size="11.00">needs REOPEN</text>
</g>
<!-- Unchanged&#45;&gt;DeleteReverted -->
<g id="edge20" class="edge">
<title>Unchanged&#45;&gt;DeleteReverted</title>
<path fill="none" stroke="darkorange" d="M347.02,-232.45C366.9,-195.65 410.25,-125.85 468.56,-91.78 499.14,-73.9 587.56,-61.45 652.98,-54.37"/>
<polygon fill="darkorange" stroke="darkorange" points="653,-57.88 662.58,-53.35 652.27,-50.92 653,-57.88"/>
<text xml:space="preserve" text-anchor="middle" x="537.6" y="-105.28" font-family="Helvetica,sans-Serif" font-size="9.00" fill="darkorange">undo</text>
<text xml:space="preserve" text-anchor="middle" x="537.6" y="-94.48" font-family="Helvetica,sans-Serif" font-size="9.00" fill="darkorange">[saved Deleted or DeleteReverted]</text>
</g>
<!-- Edited&#45;&gt;Unchanged -->
<g id="edge4" class="edge">
<title>Edited&#45;&gt;Unchanged</title>
<path fill="none" stroke="#555555" d="M333.97,-316.39C333.97,-308.38 333.97,-300.1 333.97,-292.33"/>
<polygon fill="#555555" stroke="#555555" points="337.47,-292.56 333.97,-282.56 330.47,-292.56 337.47,-292.56"/>
<text xml:space="preserve" text-anchor="middle" x="325.57" y="-295.91" font-family="Helvetica,sans-Serif" font-size="9.00" fill="#555555">undo (all props)</text>
</g>
<!-- Edited&#45;&gt;Unchanged -->
<g id="edge13" class="edge">
<title>Edited&#45;&gt;Unchanged</title>
<path fill="none" stroke="darkgreen" d="M349.74,-316.75C351.98,-306.38 353.6,-299.03 352.86,-290.59"/>
<polygon fill="darkgreen" stroke="darkgreen" points="356.34,-290.1 350.97,-280.96 349.47,-291.45 356.34,-290.1"/>
<text xml:space="preserve" text-anchor="middle" x="342.37" y="-295.91" font-family="Helvetica,sans-Serif" font-size="9.00" fill="darkgreen">afterCommit()</text>
</g>
<!-- Edited&#45;&gt;Edited -->
<g id="edge3" class="edge">
<title>Edited&#45;&gt;Edited</title>
<path fill="none" stroke="#999999" stroke-dasharray="5,2" d="M303.89,-401.18C305.74,-412.04 315.77,-420.23 333.97,-420.23 345.92,-420.23 354.34,-416.7 359.24,-411.21"/>
<polygon fill="#999999" stroke="#999999" points="362.23,-413.08 363.39,-402.55 355.92,-410.05 362.23,-413.08"/>
<text xml:space="preserve" text-anchor="middle" x="333.97" y="-422.93" font-family="Helvetica,sans-Serif" font-size="9.00" fill="#999999">prop±</text>
</g>
<!-- Edited&#45;&gt;Deleted -->
<g id="edge8" class="edge">
<title>Edited&#45;&gt;Deleted</title>
<path fill="none" stroke="black" d="M364.09,-401.22C388.11,-431.8 425.21,-470.86 468.56,-488.38 525.46,-511.36 546.72,-501.63 606.64,-488.38 632.84,-482.58 660.1,-470.58 682.23,-459.08"/>
<polygon fill="black" stroke="black" points="683.83,-462.2 691,-454.4 680.53,-456.02 683.83,-462.2"/>
<text xml:space="preserve" text-anchor="middle" x="537.6" y="-504.9" font-family="Helvetica,sans-Serif" font-size="9.00">remove()</text>
</g>
<!-- Deleted&#45;&gt;Unchanged -->
<g id="edge10" class="edge">
<title>Deleted&#45;&gt;Unchanged</title>
<path fill="none" stroke="#555555" d="M682.89,-410.47C660.3,-401.03 632.48,-390.51 606.64,-383.78 576.65,-375.96 492.21,-384.39 468.56,-364.38 448.28,-347.22 468.29,-327.16 450.56,-307.38 435.04,-290.06 412.55,-278.33 391.53,-270.55"/>
<polygon fill="#555555" stroke="#555555" points="392.74,-267.26 382.14,-267.31 390.46,-273.88 392.74,-267.26"/>
<text xml:space="preserve" text-anchor="middle" x="537.6" y="-397.28" font-family="Helvetica,sans-Serif" font-size="9.00" fill="#555555">undo remove</text>
<text xml:space="preserve" text-anchor="middle" x="537.6" y="-386.48" font-family="Helvetica,sans-Serif" font-size="9.00" fill="#555555">[was Unchanged]</text>
</g>
<!-- Deleted&#45;&gt;Unchanged -->
<g id="edge14" class="edge">
<title>Deleted&#45;&gt;Unchanged</title>
<path fill="none" stroke="darkgreen" d="M699.41,-408.4C675.45,-390.82 640.33,-367.04 606.64,-351.58 548.54,-324.92 528.88,-332.51 468.56,-311.38 439.67,-301.25 407.95,-288.28 382.68,-277.48"/>
<polygon fill="darkgreen" stroke="darkgreen" points="384.23,-274.33 373.66,-273.59 381.46,-280.76 384.23,-274.33"/>
<text xml:space="preserve" text-anchor="middle" x="537.6" y="-354.28" font-family="Helvetica,sans-Serif" font-size="9.00" fill="darkgreen">afterCommit()</text>
</g>
<!-- Deleted&#45;&gt;Edited -->
<g id="edge11" class="edge">
<title>Deleted&#45;&gt;Edited</title>
<path fill="none" stroke="#555555" d="M660.28,-446.45C606.9,-455.3 531.67,-461.57 468.56,-443.38 441.49,-435.57 414.62,-420.49 392.15,-405.23"/>
<polygon fill="#555555" stroke="#555555" points="394.25,-402.43 384.05,-399.57 390.24,-408.16 394.25,-402.43"/>
<text xml:space="preserve" text-anchor="middle" x="537.6" y="-468.58" font-family="Helvetica,sans-Serif" font-size="9.00" fill="#555555">undo remove</text>
<text xml:space="preserve" text-anchor="middle" x="537.6" y="-457.78" font-family="Helvetica,sans-Serif" font-size="9.00" fill="#555555">[was Edited]</text>
</g>
<!-- InsertReverted&#45;&gt;Unchanged -->
<g id="edge15" class="edge">
<title>InsertReverted&#45;&gt;Unchanged</title>
<path fill="none" stroke="darkgreen" d="M641.65,-269.6C567.33,-266.4 462.55,-261.88 396.72,-259.04"/>
<polygon fill="darkgreen" stroke="darkgreen" points="396.95,-255.55 386.81,-258.61 396.65,-262.54 396.95,-255.55"/>
<text xml:space="preserve" text-anchor="middle" x="537.6" y="-270.58" font-family="Helvetica,sans-Serif" font-size="9.00" fill="darkgreen">afterCommit()</text>
</g>
<!-- InsertReverted&#45;&gt;Unchanged -->
<g id="edge21" class="edge">
<title>InsertReverted&#45;&gt;Unchanged</title>
<path fill="none" stroke="steelblue" d="M663.44,-256.92C645.17,-253.06 625.23,-249.51 606.64,-247.58 534.33,-240.05 450.68,-244.77 395.52,-249.72"/>
<polygon fill="steelblue" stroke="steelblue" points="395.33,-246.22 385.7,-250.63 395.98,-253.19 395.33,-246.22"/>
<text xml:space="preserve" text-anchor="middle" x="537.6" y="-250.28" font-family="Helvetica,sans-Serif" font-size="9.00" fill="steelblue">redo</text>
</g>
<!-- EditReverted&#45;&gt;Unchanged -->
<g id="edge16" class="edge">
<title>EditReverted&#45;&gt;Unchanged</title>
<path fill="none" stroke="darkgreen" d="M632.61,-147.12C582.52,-143.63 521.01,-144.72 468.56,-161.58 428.6,-174.42 390.31,-203.96 365.05,-226.68"/>
<polygon fill="darkgreen" stroke="darkgreen" points="362.77,-224.02 357.79,-233.37 367.51,-229.17 362.77,-224.02"/>
<text xml:space="preserve" text-anchor="middle" x="537.6" y="-164.28" font-family="Helvetica,sans-Serif" font-size="9.00" fill="darkgreen">afterCommit()</text>
</g>
<!-- EditReverted&#45;&gt;Unchanged -->
<g id="edge22" class="edge">
<title>EditReverted&#45;&gt;Unchanged</title>
<path fill="none" stroke="steelblue" d="M659.86,-134.85C605.93,-119.11 530.15,-106.14 468.56,-130.58 421.46,-149.26 381.32,-193.29 357.67,-223.95"/>
<polygon fill="steelblue" stroke="steelblue" points="354.99,-221.69 351.78,-231.79 360.59,-225.9 354.99,-221.69"/>
<text xml:space="preserve" text-anchor="middle" x="537.6" y="-133.28" font-family="Helvetica,sans-Serif" font-size="9.00" fill="steelblue">redo</text>
</g>
<!-- DeleteReverted&#45;&gt;Unchanged -->
<g id="edge17" class="edge">
<title>DeleteReverted&#45;&gt;Unchanged</title>
<path fill="none" stroke="darkgreen" d="M664.7,-40.79C598.6,-35.24 501.04,-30.75 468.56,-48.58 401.24,-85.53 362.74,-172.44 345.68,-221.36"/>
<polygon fill="darkgreen" stroke="darkgreen" points="342.43,-220.02 342.56,-230.62 349.07,-222.26 342.43,-220.02"/>
<text xml:space="preserve" text-anchor="middle" x="537.6" y="-51.28" font-family="Helvetica,sans-Serif" font-size="9.00" fill="darkgreen">afterCommit()</text>
</g>
<!-- DeleteReverted&#45;&gt;Unchanged -->
<g id="edge23" class="edge">
<title>DeleteReverted&#45;&gt;Unchanged</title>
<path fill="none" stroke="steelblue" d="M686.68,-28.44C632.22,-7.27 536.74,19.16 468.56,-20.58 393.79,-64.15 357.51,-166.82 343,-221.18"/>
<polygon fill="steelblue" stroke="steelblue" points="339.69,-219.99 340.6,-230.55 346.47,-221.73 339.69,-219.99"/>
<text xml:space="preserve" text-anchor="middle" x="537.6" y="-23.28" font-family="Helvetica,sans-Serif" font-size="9.00" fill="steelblue">redo</text>
</g>
</g>
</svg>
